<?xml version="1.0" standalone="no"?>
<!DOCTYPE svg PUBLIC "-//W3C//DTD SVG 20010904//EN"
 "http://www.w3.org/TR/2001/REC-SVG-20010904/DTD/svg10.dtd">
<svg version="1.0" xmlns="http://www.w3.org/2000/svg"
 width="260.000000pt" height="260.000000pt" viewBox="0 0 260.000000 260.000000"
 preserveAspectRatio="xMidYMid meet">
<metadata>
Created by potrace 1.11, written by Peter Selinger 2001-2013
</metadata>
<g transform="translate(0.000000,260.000000) scale(0.100000,-0.100000)"
fill="#000000" stroke="none">
<path d="M1970 2588 c0 -5 5 -6 12 -2 7 4 8 3 4 -4 -4 -6 -13 -9 -22 -5 -9 3
-62 -43 -158 -139 l-143 -144 -102 1 c-63 1 -108 -3 -115 -9 -6 -7 -18 -11
-26 -11 -8 0 -21 -5 -28 -12 -8 -7 -17 -11 -22 -8 -4 3 -11 -2 -14 -11 -4 -9
-13 -14 -21 -10 -9 3 -15 0 -15 -9 0 -8 -5 -15 -11 -15 -9 0 -42 -32 -102
-100 -8 -8 -22 -30 -33 -47 -10 -18 -22 -33 -27 -33 -4 0 -5 -4 -2 -10 3 -5 1
-10 -4 -10 -6 0 -11 -5 -11 -10 0 -6 -8 -20 -19 -31 -17 -19 -19 -19 -24 -2
-4 10 -13 35 -20 55 -8 21 -11 35 -7 33 5 -3 6 4 3 15 -3 11 -10 20 -15 20 -5
0 -7 4 -4 9 4 5 0 8 -6 7 -29 -6 -48 -19 -48 -32 0 -8 -7 -17 -15 -20 -8 -4
-13 -10 -10 -14 3 -5 -2 -15 -10 -23 -8 -9 -15 -20 -15 -25 0 -6 -3 -12 -7
-14 -12 -5 -45 -107 -38 -118 3 -5 0 -7 -8 -4 -10 4 -13 -3 -12 -26 1 -16 -1
-30 -5 -30 -4 0 -6 -13 -5 -30 1 -16 -2 -27 -7 -24 -4 3 -9 0 -9 -5 -3 -21 -4
-26 -12 -38 -5 -8 -3 -13 5 -13 10 0 10 -2 1 -8 -7 -5 -14 -20 -15 -35 -1 -15
-7 -27 -13 -27 -5 0 -3 -5 5 -10 13 -9 13 -10 0 -10 -13 0 -13 -1 0 -10 9 -6
10 -10 3 -10 -6 0 -10 -9 -8 -20 2 -11 -2 -20 -8 -20 -8 0 -8 -3 2 -9 8 -5 9
-11 3 -15 -6 -3 -9 -17 -7 -31 1 -14 -2 -25 -7 -25 -5 0 -4 -9 2 -19 7 -14 7
-22 0 -26 -8 -5 -8 -11 0 -20 8 -10 8 -15 -1 -20 -8 -6 -7 -10 2 -16 12 -7 12
-9 0 -9 -10 0 -11 -3 -2 -14 9 -11 9 -16 0 -21 -8 -6 -7 -10 2 -16 8 -5 9 -9
4 -9 -6 0 -11 -9 -12 -20 -1 -13 2 -18 10 -13 7 4 6 -1 -2 -11 -13 -15 -13
-19 0 -27 8 -5 9 -9 3 -9 -6 0 -11 -7 -11 -15 0 -8 3 -15 7 -15 4 0 7 -7 7
-15 0 -8 -5 -15 -10 -15 -5 0 -5 -5 1 -13 7 -8 7 -18 2 -27 -5 -8 -5 -21 0
-31 5 -9 11 -36 12 -60 2 -24 7 -47 13 -51 6 -5 5 -11 -4 -17 -8 -5 -9 -11 -3
-15 6 -3 9 -19 7 -34 -2 -15 -4 -31 -4 -37 -1 -5 -6 -3 -11 5 -9 13 -10 13
-10 0 -1 -12 -3 -11 -11 3 -8 14 -14 15 -24 7 -8 -7 -15 -7 -19 -1 -8 12 -148
12 -163 -1 -7 -6 -13 -7 -13 -2 0 4 -6 -1 -14 -11 -8 -11 -12 -23 -10 -27 3
-5 -2 -8 -11 -8 -10 0 -15 -7 -13 -17 2 -10 -1 -17 -7 -16 -9 1 -10 -21 -6
-115 0 -18 5 -31 10 -28 5 4 7 -3 4 -14 -3 -11 -10 -20 -17 -20 -7 0 -6 -4 2
-9 8 -4 13 -11 13 -15 -1 -3 -1 -7 0 -8 1 -2 2 -15 3 -31 3 -33 -20 -58 -30
-33 -4 10 -12 15 -19 12 -7 -2 -15 5 -18 16 -4 14 -11 19 -22 14 -9 -3 -18 0
-21 9 -4 10 -12 12 -30 4 -14 -5 -23 -5 -20 -1 4 8 -15 8 -107 3 -11 -1 -15
-6 -11 -12 4 -8 0 -9 -15 -4 -12 4 -21 2 -21 -4 0 -6 -5 -11 -11 -11 -6 0 -24
-11 -41 -25 -16 -14 -26 -25 -22 -25 4 0 0 -6 -11 -13 -11 -9 -15 -19 -10 -27
6 -10 4 -12 -9 -7 -14 6 -15 4 -5 -14 8 -15 8 -19 0 -15 -6 4 -11 3 -11 -2 0
-17 38 -20 65 -6 18 9 24 10 18 1 -5 -9 -3 -9 8 0 12 10 18 10 29 0 9 -8 11
-9 6 0 -3 6 -2 14 4 18 5 3 10 2 10 -3 0 -5 14 -8 30 -6 19 2 30 -1 30 -9 0
-8 4 -7 10 3 6 10 10 11 10 3 0 -7 8 -13 18 -13 10 0 24 -9 32 -19 7 -11 17
-18 21 -15 5 2 13 -5 19 -16 6 -11 16 -17 22 -14 7 4 8 3 4 -5 -4 -6 0 -14 8
-17 9 -3 16 -12 16 -20 0 -8 4 -14 9 -14 5 0 24 -15 42 -33 18 -17 29 -25 25
-17 -4 8 2 4 13 -10 11 -14 21 -21 21 -16 0 4 11 1 24 -7 17 -12 26 -13 35 -4
8 8 11 8 11 -3 0 -9 6 -8 22 6 12 10 18 13 14 6 -9 -15 0 -16 17 -2 7 6 21 18
32 26 11 9 13 13 5 9 -11 -5 -11 -3 1 7 14 11 16 32 15 112 0 54 2 100 7 103
4 2 3 12 -2 21 -5 10 -8 32 -7 49 1 18 -2 30 -6 27 -4 -3 -8 0 -8 6 0 6 7 13
15 16 8 4 13 9 10 13 -2 4 13 7 33 6 20 -1 36 -6 35 -11 -1 -5 6 -10 15 -10 9
-1 26 -5 36 -9 15 -6 17 -5 11 5 -5 9 -4 11 3 6 7 -4 12 -14 12 -22 0 -8 7
-14 16 -14 8 0 13 -4 10 -9 -4 -5 -2 -11 4 -13 6 -2 12 -13 14 -25 3 -12 9
-30 15 -41 6 -11 7 -22 4 -26 -3 -3 -1 -6 5 -6 7 0 12 -9 12 -20 0 -11 5 -20
11 -20 5 0 8 -4 5 -8 -3 -5 5 -19 18 -33 12 -13 23 -27 24 -32 6 -28 125 -160
136 -150 3 3 6 -1 6 -11 0 -9 4 -15 8 -12 5 3 14 -4 22 -14 8 -10 17 -17 22
-14 4 3 8 1 8 -5 0 -6 7 -8 15 -4 9 3 15 2 13 -3 -2 -5 -1 -9 2 -9 3 0 19 -10
37 -23 17 -12 38 -22 46 -22 9 0 17 -3 19 -7 4 -10 66 -43 79 -43 6 0 7 5 3
12 -5 7 -3 8 7 3 19 -13 59 -15 59 -4 0 5 5 9 11 9 5 0 7 -6 4 -13 -4 -6 0 -4
9 7 9 11 20 15 28 10 7 -4 10 -4 6 0 -4 5 3 18 15 30 29 28 47 64 49 101 1 17
8 39 15 49 11 18 13 18 19 3 3 -9 10 -14 15 -11 5 3 9 0 9 -6 0 -7 7 -10 15
-6 8 3 15 1 15 -4 0 -6 9 -10 20 -10 11 0 34 -8 52 -18 18 -10 43 -18 56 -17
13 1 25 -2 28 -7 3 -4 9 -6 13 -4 4 3 20 7 35 10 29 5 55 31 56 54 0 6 5 12
12 12 6 0 8 3 5 7 -4 3 1 15 10 26 10 10 16 20 14 21 -7 2 10 46 18 46 5 0 7
11 6 25 -2 14 1 23 6 19 8 -5 14 24 10 54 -1 6 3 12 9 12 5 0 9 3 9 8 -1 4 -1
9 1 12 1 3 3 22 5 44 3 35 25 78 25 48 0 -9 5 -10 17 -3 10 5 26 5 40 0 14 -5
23 -5 23 1 0 6 11 8 25 6 17 -3 23 -1 19 6 -5 7 -1 9 9 5 10 -3 17 -2 17 3 0
5 7 7 15 4 8 -4 15 -1 15 5 0 6 7 11 15 11 19 0 107 88 100 100 -3 4 3 11 12
14 15 6 15 8 3 17 -11 8 -12 12 -2 16 6 2 12 19 12 36 0 24 -3 28 -10 17 -5
-8 -10 -11 -10 -6 0 5 -8 2 -17 -5 -15 -12 -16 -12 -8 1 5 9 0 8 -13 -4 -12
-11 -22 -16 -22 -11 0 4 -6 2 -14 -4 -10 -8 -16 -9 -21 -1 -4 6 -12 7 -23 1
-9 -5 -26 -5 -39 0 -15 6 -23 5 -23 -2 0 -8 -4 -8 -12 -2 -7 6 -21 9 -31 8 -9
-2 -15 1 -11 6 3 5 -6 9 -20 9 -15 0 -31 8 -38 19 -6 10 -17 17 -25 14 -7 -3
-15 1 -18 9 -3 8 -18 15 -34 16 -33 2 -79 -35 -84 -68 -2 -12 -8 -25 -13 -28
-9 -6 -13 -30 -17 -79 0 -7 -3 -13 -7 -13 -4 0 -7 -6 -7 -12 -1 -23 -8 -43
-18 -50 -6 -4 -1 -8 9 -8 18 0 18 -1 3 -12 -9 -7 -19 -24 -21 -38 -3 -14 -5
-27 -6 -30 -2 -3 -2 -8 -1 -12 0 -5 -3 -8 -8 -8 -6 0 -8 -9 -6 -20 2 -11 0
-20 -6 -20 -5 0 -9 -8 -9 -19 0 -24 -31 -52 -37 -33 -3 6 -9 10 -14 6 -5 -3
-9 0 -9 6 0 6 -4 8 -10 5 -5 -3 -10 -1 -10 4 0 6 -6 11 -14 11 -8 0 -18 5 -22
12 -4 7 -3 8 4 4 7 -4 12 -3 12 2 0 5 -9 12 -19 15 -20 5 -20 9 -9 115 1 6 4
12 7 12 4 0 8 12 9 27 1 15 6 29 11 32 4 3 7 14 5 23 -1 10 1 18 5 18 4 0 8 6
9 13 2 24 27 87 34 87 5 0 8 7 8 15 0 20 32 85 42 85 4 0 8 6 8 14 0 8 6 21
13 28 11 13 33 50 61 103 7 14 17 21 21 17 5 -4 5 1 2 11 -4 11 -1 17 7 17 8
0 13 8 12 17 -2 10 8 29 21 43 12 13 23 29 23 34 0 5 8 15 18 22 13 10 14 13
3 14 -11 0 -8 6 7 21 12 11 20 24 17 29 -3 4 2 11 11 14 9 4 14 9 11 13 -4 3
5 16 18 29 14 13 25 26 25 29 0 3 8 14 18 24 51 56 72 82 72 92 0 5 4 8 9 5 4
-3 13 6 20 20 6 14 16 22 21 19 6 -3 10 -2 10 4 0 5 11 22 24 36 28 30 76 41
76 18 0 -8 4 -12 9 -9 4 3 26 -11 48 -32 27 -26 45 -36 59 -32 18 4 21 14 23
71 2 44 -2 71 -11 80 -7 8 -14 21 -16 29 -5 22 -23 41 -33 35 -4 -3 -11 1 -16
9 -8 14 -113 30 -113 17 0 -4 -16 -5 -35 -3 -24 3 -35 0 -35 -9 0 -7 -3 -9 -7
-6 -3 4 -12 2 -20 -4 -7 -6 -13 -9 -13 -5 0 3 -11 1 -24 -4 -27 -10 -28 -3 -9
50 5 14 8 72 6 130 -4 128 -4 130 -15 130 -5 0 -7 9 -3 19 3 11 1 22 -5 26 -6
3 -8 11 -5 16 4 5 1 9 -4 9 -6 0 -11 7 -11 15 0 8 -4 15 -10 15 -5 0 -10 7
-10 15 0 8 -4 15 -9 15 -5 0 -23 13 -40 29 -26 25 -31 36 -30 68 2 22 -1 44
-5 51 -5 8 -2 10 10 5 14 -5 15 -3 5 15 -6 11 -7 23 -3 26 4 3 7 30 7 60 -1
31 2 56 6 56 4 0 6 11 4 25 -1 14 1 25 5 25 10 0 7 126 -3 136 -4 4 -7 1 -7
-6 0 -7 -3 -10 -6 -7 -4 3 -15 2 -25 -3 -12 -7 -20 -6 -25 2 -4 6 -3 8 4 4 6
-3 13 -3 15 1 3 5 -10 8 -29 9 -19 0 -34 -3 -34 -8z"/>
</g>
</svg>
